<svg fill='#5f6b73' id="Capa_1" enable-background="new 0 0 512 512" height="512" viewBox="0 0 512 512" width="512" xmlns="http://www.w3.org/2000/svg"><g><path d="m437.02 74.98c-48.353-48.351-112.64-74.98-181.02-74.98s-132.667 26.629-181.02 74.98c-48.351 48.353-74.98 112.64-74.98 181.02s26.629 132.667 74.98 181.02c48.353 48.351 112.64 74.98 181.02 74.98s132.667-26.629 181.02-74.98c48.351-48.353 74.98-112.64 74.98-181.02s-26.629-132.667-74.98-181.02zm-166.02 85.296c27.079-.815 53.442-3.827 78.203-8.829 6.948 27.596 11.063 57.935 12.054 89.553h-90.257zm0-30.015v-97.737c20.728 6.917 40.83 27.851 56.79 59.771 4.726 9.452 8.989 19.599 12.769 30.326-22.001 4.273-45.427 6.875-69.559 7.64zm-30-97.737v97.737c-24.132-.765-47.558-3.368-69.559-7.639 3.78-10.728 8.043-20.874 12.769-30.326 15.96-31.921 36.063-52.855 56.79-59.772zm0 127.752v80.724h-90.257c.992-31.617 5.106-61.957 12.054-89.553 24.761 5.002 51.124 8.014 78.203 8.829zm-120.269 80.724h-90.229c2.841-43.646 18.046-84.894 43.944-119.659 17.568 9.226 37.54 16.977 59.213 23.085-7.505 29.92-11.92 62.636-12.928 96.574zm0 30c1.008 33.938 5.423 66.654 12.928 96.573-21.673 6.108-41.645 13.859-59.213 23.085-25.898-34.764-41.103-76.012-43.944-119.658zm30.012 0h90.257v80.724c-27.079.815-53.442 3.827-78.203 8.829-6.948-27.596-11.063-57.936-12.054-89.553zm90.257 110.739v97.737c-20.727-6.917-40.83-27.851-56.79-59.771-4.726-9.452-8.989-19.599-12.769-30.326 22.001-4.273 45.427-6.875 69.559-7.64zm30 97.737v-97.737c24.132.765 47.558 3.368 69.559 7.639-3.78 10.728-8.043 20.874-12.769 30.326-15.96 31.921-36.062 52.855-56.79 59.772zm0-127.752v-80.724h90.257c-.992 31.617-5.106 61.957-12.054 89.553-24.761-5.002-51.124-8.014-78.203-8.829zm120.269-80.724h90.229c-2.841 43.646-18.046 84.894-43.944 119.659-17.568-9.226-37.54-16.977-59.213-23.085 7.505-29.92 11.92-62.635 12.928-96.574zm0-30c-1.008-33.939-5.423-66.654-12.928-96.574 21.672-6.108 41.645-13.859 59.213-23.085 25.899 34.764 41.103 76.013 43.944 119.659zm26.203-143.099c-14.333 6.99-30.336 12.957-47.586 17.802-4.45-13.052-9.544-25.386-15.263-36.825-6.787-13.574-14.263-25.504-22.294-35.725 31.033 11.105 59.478 29.042 83.477 53.04.563.564 1.11 1.14 1.666 1.708zm-237.801-54.747c-8.031 10.221-15.507 22.151-22.294 35.725-5.719 11.439-10.814 23.772-15.264 36.825-17.25-4.845-33.254-10.813-47.586-17.802.557-.568 1.103-1.144 1.666-1.708 23.999-23.998 52.445-41.935 83.478-53.04zm-85.144 370.945c14.333-6.99 30.336-12.957 47.586-17.802 4.45 13.052 9.544 25.386 15.264 36.825 6.787 13.574 14.263 25.504 22.294 35.725-31.034-11.106-59.479-29.042-83.478-53.04-.563-.564-1.109-1.14-1.666-1.708zm237.802 54.747c8.031-10.221 15.507-22.15 22.294-35.725 5.719-11.439 10.813-23.772 15.263-36.825 17.25 4.845 33.253 10.813 47.586 17.802-.557.568-1.103 1.144-1.667 1.708-23.998 23.998-52.442 41.934-83.476 53.04z"/></g></svg>